<?xml version="1.0" encoding="UTF-8" standalone="no"?>
<!-- Created with Inkscape (http://www.inkscape.org/) -->

<svg
   xmlns:dc="http://purl.org/dc/elements/1.1/"
   xmlns:cc="http://creativecommons.org/ns#"
   xmlns:rdf="http://www.w3.org/1999/02/22-rdf-syntax-ns#"
   xmlns:svg="http://www.w3.org/2000/svg"
   xmlns="http://www.w3.org/2000/svg"
   xmlns:xlink="http://www.w3.org/1999/xlink"
   xmlns:sodipodi="http://sodipodi.sourceforge.net/DTD/sodipodi-0.dtd"
   xmlns:inkscape="http://www.inkscape.org/namespaces/inkscape"
   id="svg2985"
   version="1.1"
   inkscape:version="0.48.4 r9939"
   width="420"
   height="596"
   sodipodi:docname="tc.svg">
  <metadata
     id="metadata2991">
    <rdf:RDF>
      <cc:Work
         rdf:about="">
        <dc:format>image/svg+xml</dc:format>
        <dc:type
           rdf:resource="http://purl.org/dc/dcmitype/StillImage" />
        <dc:title></dc:title>
      </cc:Work>
    </rdf:RDF>
  </metadata>
  <defs
     id="defs2989" />
  <sodipodi:namedview
     pagecolor="#ffffff"
     bordercolor="#666666"
     borderopacity="1"
     objecttolerance="10"
     gridtolerance="10"
     guidetolerance="10"
     inkscape:pageopacity="0"
     inkscape:pageshadow="2"
     inkscape:window-width="1366"
     inkscape:window-height="706"
     id="namedview2987"
     showgrid="false"
     inkscape:zoom="9.8520381"
     inkscape:cx="223.89149"
     inkscape:cy="410.4853"
     inkscape:window-x="-8"
     inkscape:window-y="-8"
     inkscape:window-maximized="1"
     inkscape:current-layer="layer13">
    <inkscape:grid
       type="xygrid"
       id="grid3011" />
  </sodipodi:namedview>
  <image
     width="420"
     height="596"
     xlink:href="file:///D:/%D0%98%D0%B7%D0%BE%D0%B1%D1%80%D0%B0%D0%B6%D0%B5%D0%BD%D0%B8%D1%8F/tc.png"
     id="image2993"
     x="0"
     y="0" />
  <g
     inkscape:groupmode="layer"
     id="layer1"
     inkscape:label="Феликс"
     style="display:inline">
    <path
       style="fill:none;stroke:#000000;stroke-width:1px;stroke-linecap:butt;stroke-linejoin:miter;stroke-opacity:1"
       d="m 106.22351,65.456647 0.28709,99.046243 88.99807,0 -0.28709,-99.333334 z"
       id="path2998"
       inkscape:connector-curvature="0" />
  </g>
  <g
     inkscape:groupmode="layer"
     id="layer2"
     inkscape:label="8 марта">
    <path
       style="fill:none;stroke:#000000;stroke-width:1px;stroke-linecap:butt;stroke-linejoin:miter;stroke-opacity:1"
       d="m 195.79576,64.882466 70.0501,0.574181 0.28709,99.046243 -70.0501,0 z"
       id="path3003"
       inkscape:connector-curvature="0" />
  </g>
  <g
     inkscape:groupmode="layer"
     id="layer3"
     inkscape:label="Гонзалюкс">
    <path
       style="fill:none;stroke:#000000;stroke-width:1px;stroke-linecap:butt;stroke-linejoin:miter;stroke-opacity:1"
       d="m 266.70713,65.169556 55.69557,0 0,8.038536 25.83815,0.28709 0,22.680155 5.16763,0.28709 0.28709,67.753373 -86.98844,0 z"
       id="path3006"
       inkscape:connector-curvature="0" />
  </g>
  <g
     inkscape:groupmode="layer"
     id="layer4"
     inkscape:label="Диваника">
    <path
       style="fill:none;stroke:#000000;stroke-width:1px;stroke-linecap:butt;stroke-linejoin:miter;stroke-opacity:1"
       d="m 105.56191,164.61718 -20.909375,-0.40601 0,-4.66908 -25.37546,-0.20301 0,5.07509 -8.729158,0 -0.203004,-56.23202 9.135166,-7.71414 0,-24.766445 23.954434,0 8.729158,-10.353188 13.195239,0 z"
       id="path3009"
       inkscape:connector-curvature="0" />
  </g>
  <g
     inkscape:groupmode="layer"
     id="layer5"
     inkscape:label="Матрамакс">
    <path
       style="fill:none;stroke:#000000;stroke-width:1px;stroke-linecap:butt;stroke-linejoin:miter;stroke-opacity:1"
       d="m 345.51349,166.08189 8.75626,0 0.43064,53.54239 -34.59442,0 -0.14354,-33.73314 25.6946,-0.14355 z"
       id="path3014"
       inkscape:connector-curvature="0" />
  </g>
  <g
     inkscape:groupmode="layer"
     id="layer6"
     inkscape:label="Кухонные гарнитуры">
    <path
       style="fill:none;stroke:#000000;stroke-width:1px;stroke-linecap:butt;stroke-linejoin:miter;stroke-opacity:1"
       d="m 261.68304,195.65222 42.48941,0.14354 0,27.56069 -3.87573,0 0,5.88536 -5.88535,0.14355 0,5.88535 -20.23989,0 0,9.47399 7.89499,0 0,26.26879 -20.38343,0.14354 z"
       id="path3017"
       inkscape:connector-curvature="0" />
  </g>
  <g
     inkscape:groupmode="layer"
     id="layer7"
     inkscape:label="Экомебель">
    <path
       style="fill:none;stroke:#000000;stroke-width:1px;stroke-linecap:butt;stroke-linejoin:miter;stroke-opacity:1"
       d="m 262.40077,271.87476 40.91041,0.14354 0,122.44413 -40.62332,0 z"
       id="path3020"
       inkscape:connector-curvature="0" />
  </g>
  <g
     inkscape:groupmode="layer"
     id="layer8"
     inkscape:label="Солнечная ладья">
    <path
       style="fill:none;stroke:#000000;stroke-width:1px;stroke-linecap:butt;stroke-linejoin:miter;stroke-opacity:1"
       d="m 195.50867,274.60212 23.68497,0 0,20.95761 -23.68497,-0.14355 z"
       id="path3023"
       inkscape:connector-curvature="0" />
  </g>
  <g
     inkscape:groupmode="layer"
     id="layer9"
     inkscape:label="Мебель">
    <path
       style="fill:none;stroke:#000000;stroke-width:1px;stroke-linecap:butt;stroke-linejoin:miter;stroke-opacity:1"
       d="m 159.62235,230.53372 18.66089,0 0,21.96243 -18.66089,-0.28709 z"
       id="path3026"
       inkscape:connector-curvature="0" />
  </g>
  <g
     inkscape:groupmode="layer"
     id="layer10"
     inkscape:label="Постельное белье">
    <path
       style="fill:none;stroke:#000000;stroke-width:1px;stroke-linecap:butt;stroke-linejoin:miter;stroke-opacity:1"
       d="m 99.620424,197.66185 29.713876,-0.14355 -0.14355,31.00578 -29.570326,-0.14354 z"
       id="path3029"
       inkscape:connector-curvature="0" />
  </g>
  <g
     inkscape:groupmode="layer"
     id="layer11"
     inkscape:label="Стены">
    <path
       style="fill:none;stroke:#000000;stroke-width:1px;stroke-linecap:butt;stroke-linejoin:miter;stroke-opacity:1"
       d="m 130.05202,197.37476 23.39788,0.28709 0,28.8526 -23.54142,-0.14354 z"
       id="path3032"
       inkscape:connector-curvature="0" />
    <path
       style="fill:none;stroke:#000000;stroke-width:1px;stroke-linecap:butt;stroke-linejoin:miter;stroke-opacity:1"
       d="m 153.73699,197.5183 24.83334,0.28709 -0.28709,31.86706 -18.3738,0 -0.14354,-3.58864 -5.88536,0.14355 z"
       id="path3034"
       inkscape:connector-curvature="0" />
    <path
       style="fill:none;stroke:#000000;stroke-width:1px;stroke-linecap:butt;stroke-linejoin:miter;stroke-opacity:1"
       d="m 195.36513,197.37476 49.95375,-0.28709 0.43064,77.3709 -50.24085,0 z"
       id="path3036"
       inkscape:connector-curvature="0" />
    <path
       style="fill:none;stroke:#000000;stroke-width:1px;stroke-linecap:butt;stroke-linejoin:miter;stroke-opacity:1"
       d="m 50.344913,164.61718 8.323151,0 0,22.1274 25.781467,0.40601 0,65.57019 -33.901614,-0.40601 z"
       id="path3038"
       inkscape:connector-curvature="0" />
    <path
       style="fill:none;stroke:#000000;stroke-width:1px;stroke-linecap:butt;stroke-linejoin:miter;stroke-opacity:1"
       d="m 99.674807,238.30751 23.954433,0 -0.40601,36.13466 55.21701,0.203 0,40.60074 -50.34492,0 0,26.79648 -15.63128,0 0,-6.69912 -12.789233,-0.203 z"
       id="path3040"
       inkscape:connector-curvature="0" />
    <path
       style="fill:none;stroke:#000000;stroke-width:1px;stroke-linecap:butt;stroke-linejoin:miter;stroke-opacity:1"
       d="m 220.05599,275.25418 24.36044,0.40601 0,19.48835 -24.36044,-0.203 z"
       id="path3042"
       inkscape:connector-curvature="0" />
    <path
       style="fill:none;stroke:#000000;stroke-width:1px;stroke-linecap:butt;stroke-linejoin:miter;stroke-opacity:1"
       d="m 283.39314,244.39762 20.09736,0 -0.203,26.79649 -19.89436,0 z"
       id="path3044"
       inkscape:connector-curvature="0" />
    <path
       style="fill:none;stroke:#000000;stroke-width:1px;stroke-linecap:butt;stroke-linejoin:miter;stroke-opacity:1"
       d="m 159.35789,252.92378 18.67634,0.203 0.203,20.90938 -18.47333,0.20301 z"
       id="path3046"
       inkscape:connector-curvature="0" />
    <path
       style="fill:none;stroke:#000000;stroke-width:1px;stroke-linecap:butt;stroke-linejoin:miter;stroke-opacity:1"
       d="m 195.49254,295.75756 0,98.65978 23.54843,0 0,-98.86279 z"
       id="path3048"
       inkscape:connector-curvature="0" />
    <path
       style="fill:none;stroke:#000000;stroke-width:1px;stroke-linecap:butt;stroke-linejoin:miter;stroke-opacity:1"
       d="m 219.64998,295.75756 25.57847,0.203 0,52.57795 -25.57847,-0.203 z"
       id="path3050"
       inkscape:connector-curvature="0" />
    <path
       style="fill:none;stroke:#000000;stroke-width:1px;stroke-linecap:butt;stroke-linejoin:miter;stroke-opacity:1"
       d="m 320.33981,232.42041 0.203,64.35216 33.0896,0.20301 0,-76.32939 -6.49612,-0.203 0,3.65407 -2.63904,0.203 0,7.91714 z"
       id="path3052"
       inkscape:connector-curvature="0" />
    <path
       style="fill:none;stroke:#000000;stroke-width:1px;stroke-linecap:butt;stroke-linejoin:miter;stroke-opacity:1"
       d="m 178.23723,317.07294 0.40601,77.54741 -78.968433,-0.20301 -0.203003,-22.73641 17.661316,0 0,-8.32315 44.45781,0.20301 -0.40601,-46.69085 z"
       id="path3054"
       inkscape:connector-curvature="0" />
    <path
       style="fill:none;stroke:#000000;stroke-width:1px;stroke-linecap:butt;stroke-linejoin:miter;stroke-opacity:1"
       d="m 320.33981,319.50899 33.69861,-0.20301 0.40601,33.0896 -33.90162,0 z"
       id="path3056"
       inkscape:connector-curvature="0" />
    <path
       style="fill:none;stroke:#000000;stroke-width:1px;stroke-linecap:butt;stroke-linejoin:miter;stroke-opacity:1"
       d="m 84.54817,341.49422 -34.307322,-0.14355 0.143545,54.40366 3.014451,-0.14354 0.143545,22.53661 -3.301541,0 0.143545,30.71869 34.307322,0.14354 z"
       id="path3058"
       inkscape:connector-curvature="0" />
  </g>
  <g
     inkscape:groupmode="layer"
     id="layer13"
     inkscape:label="Киоск">
    <path
       sodipodi:type="arc"
       style="fill:#210bef;fill-opacity:1;stroke:#000000;stroke-opacity:1"
       id="path3834"
       sodipodi:cx="235.53502"
       sodipodi:cy="182.78601"
       sodipodi:rx="2.8928025"
       sodipodi:ry="2.7405498"
       d="m 238.42782,182.78601 a 2.8928025,2.7405498 0 1 1 -5.7856,0 2.8928025,2.7405498 0 1 1 5.7856,0 z" />
  </g>
</svg>
